<mxfile host="" modified="2020-05-24T15:21:41.060Z" agent="5.0 (X11; Linux x86_64) AppleWebKit/537.36 (KHTML, like Gecko) Code/1.45.0 Chrome/78.0.3904.130 Electron/7.2.4 Safari/537.36" version="13.1.3" etag="lrwgP8mNOWNbAz78NI_h" pages="2">
            <diagram id="diagramid" name="Diagram">
              <mxGraphModel><root><mxCell id="0"/><mxCell id="1" parent="0"/><mxCell id="2" value="VPC" style="outlineConnect=0;fontColor=#B3B3B3;gradientColor=#945DF2;gradientDirection=north;fillColor=#5A30B5;strokeColor=#ffffff;dashed=0;verticalLabelPosition=bottom;verticalAlign=top;align=center;html=1;fontSize=12;fontStyle=0;aspect=fixed;shape=mxgraph.aws4.resourceIcon;resIcon=mxgraph.aws4.vpc;" vertex="1" parent="1"><mxGeometry x="2000" y="450" width="50" height="50" as="geometry"/></mxCell><mxCell id="3" value="PrivateSubnet1" style="outlineConnect=0;fontColor=#B3B3B3;gradientColor=#F78E04;gradientDirection=north;fillColor=#D05C17;strokeColor=#ffffff;dashed=0;verticalLabelPosition=bottom;verticalAlign=top;align=center;html=1;fontSize=12;fontStyle=0;aspect=fixed;shape=mxgraph.aws4.resourceIcon;resIcon=mxgraph.aws4.ec2;" vertex="1" parent="1"><mxGeometry x="1500" y="450" width="50" height="50" as="geometry"/></mxCell><mxCell id="4" value="PrivateSubnet2" style="outlineConnect=0;fontColor=#B3B3B3;gradientColor=#F78E04;gradientDirection=north;fillColor=#D05C17;strokeColor=#ffffff;dashed=0;verticalLabelPosition=bottom;verticalAlign=top;align=center;html=1;fontSize=12;fontStyle=0;aspect=fixed;shape=mxgraph.aws4.resourceIcon;resIcon=mxgraph.aws4.ec2;" vertex="1" parent="1"><mxGeometry x="1500" y="550" width="50" height="50" as="geometry"/></mxCell><mxCell id="5" value="InternetGateway" style="outlineConnect=0;fontColor=#B3B3B3;gradientColor=#F78E04;gradientDirection=north;fillColor=#D05C17;strokeColor=#ffffff;dashed=0;verticalLabelPosition=bottom;verticalAlign=top;align=center;html=1;fontSize=12;fontStyle=0;aspect=fixed;shape=mxgraph.aws4.resourceIcon;resIcon=mxgraph.aws4.ec2;" vertex="1" parent="1"><mxGeometry x="250" y="50" width="50" height="50" as="geometry"/></mxCell><mxCell id="6" value="AttachGateway" style="outlineConnect=0;fontColor=#B3B3B3;gradientColor=#F78E04;gradientDirection=north;fillColor=#D05C17;strokeColor=#ffffff;dashed=0;verticalLabelPosition=bottom;verticalAlign=top;align=center;html=1;fontSize=12;fontStyle=0;aspect=fixed;shape=mxgraph.aws4.resourceIcon;resIcon=mxgraph.aws4.ec2;" vertex="1" parent="1"><mxGeometry y="12.5" width="50" height="50" as="geometry"/></mxCell><mxCell id="7" value="RouteTable" style="outlineConnect=0;fontColor=#B3B3B3;gradientColor=#945DF2;gradientDirection=north;fillColor=#5A30B5;strokeColor=#ffffff;dashed=0;verticalLabelPosition=bottom;verticalAlign=top;align=center;html=1;fontSize=12;fontStyle=0;aspect=fixed;shape=mxgraph.aws4.resourceIcon;resIcon=mxgraph.aws4.route_table;" vertex="1" parent="1"><mxGeometry x="250" y="150" width="50" height="50" as="geometry"/></mxCell><mxCell id="8" value="Route" style="outlineConnect=0;fontColor=#B3B3B3;gradientColor=#945DF2;gradientDirection=north;fillColor=#5A30B5;strokeColor=#ffffff;dashed=0;verticalLabelPosition=bottom;verticalAlign=top;align=center;html=1;fontSize=12;fontStyle=0;aspect=fixed;shape=mxgraph.aws4.resourceIcon;resIcon=mxgraph.aws4.route_table;" vertex="1" parent="1"><mxGeometry y="112.5" width="50" height="50" as="geometry"/></mxCell><mxCell id="9" value="PrivateSubnet1RouteTableAssociation" style="outlineConnect=0;fontColor=#B3B3B3;gradientColor=#945DF2;gradientDirection=north;fillColor=#5A30B5;strokeColor=#ffffff;dashed=0;verticalLabelPosition=bottom;verticalAlign=top;align=center;html=1;fontSize=12;fontStyle=0;aspect=fixed;shape=mxgraph.aws4.resourceIcon;resIcon=mxgraph.aws4.route_table;" vertex="1" parent="1"><mxGeometry y="212.5" width="50" height="50" as="geometry"/></mxCell><mxCell id="10" value="PrivateSubnet2RouteTableAssociation" style="outlineConnect=0;fontColor=#B3B3B3;gradientColor=#945DF2;gradientDirection=north;fillColor=#5A30B5;strokeColor=#ffffff;dashed=0;verticalLabelPosition=bottom;verticalAlign=top;align=center;html=1;fontSize=12;fontStyle=0;aspect=fixed;shape=mxgraph.aws4.resourceIcon;resIcon=mxgraph.aws4.route_table;" vertex="1" parent="1"><mxGeometry y="312.5" width="50" height="50" as="geometry"/></mxCell><mxCell id="11" value="ECSClusterSecurityGroup" style="outlineConnect=0;fontColor=#B3B3B3;gradientColor=#F78E04;gradientDirection=north;fillColor=#D05C17;strokeColor=#ffffff;dashed=0;verticalLabelPosition=bottom;verticalAlign=top;align=center;html=1;fontSize=12;fontStyle=0;aspect=fixed;shape=mxgraph.aws4.resourceIcon;resIcon=mxgraph.aws4.ec2;" vertex="1" parent="1"><mxGeometry x="1500" y="650" width="50" height="50" as="geometry"/></mxCell><mxCell id="12" value="LoadBalancerSecurityGroup" style="outlineConnect=0;fontColor=#B3B3B3;gradientColor=#F78E04;gradientDirection=north;fillColor=#D05C17;strokeColor=#ffffff;dashed=0;verticalLabelPosition=bottom;verticalAlign=top;align=center;html=1;fontSize=12;fontStyle=0;aspect=fixed;shape=mxgraph.aws4.resourceIcon;resIcon=mxgraph.aws4.ec2;" vertex="1" parent="1"><mxGeometry x="1750" y="650" width="50" height="50" as="geometry"/></mxCell><mxCell id="13" value="RDSSecurityGroup" style="outlineConnect=0;fontColor=#B3B3B3;gradientColor=#F78E04;gradientDirection=north;fillColor=#D05C17;strokeColor=#ffffff;dashed=0;verticalLabelPosition=bottom;verticalAlign=top;align=center;html=1;fontSize=12;fontStyle=0;aspect=fixed;shape=mxgraph.aws4.resourceIcon;resIcon=mxgraph.aws4.ec2;" vertex="1" parent="1"><mxGeometry x="1250" y="400" width="50" height="50" as="geometry"/></mxCell><mxCell id="14" value="RDSMySQL" style="outlineConnect=0;fontColor=#B3B3B3;gradientColor=#4D72F3;gradientDirection=north;fillColor=#3334B9;strokeColor=#ffffff;dashed=0;verticalLabelPosition=bottom;verticalAlign=top;align=center;html=1;fontSize=12;fontStyle=0;aspect=fixed;shape=mxgraph.aws4.resourceIcon;resIcon=mxgraph.aws4.rds;" vertex="1" parent="1"><mxGeometry x="1000" y="350" width="50" height="50" as="geometry"/></mxCell><mxCell id="15" value="DBSubnetGroup" style="outlineConnect=0;fontColor=#B3B3B3;gradientColor=#4D72F3;gradientDirection=north;fillColor=#3334B9;strokeColor=#ffffff;dashed=0;verticalLabelPosition=bottom;verticalAlign=top;align=center;html=1;fontSize=12;fontStyle=0;aspect=fixed;shape=mxgraph.aws4.resourceIcon;resIcon=mxgraph.aws4.rds;" vertex="1" parent="1"><mxGeometry x="1250" y="500" width="50" height="50" as="geometry"/></mxCell><mxCell id="16" value="ECS" style="outlineConnect=0;fontColor=#B3B3B3;gradientColor=#F78E04;gradientDirection=north;fillColor=#D05C17;strokeColor=#ffffff;dashed=0;verticalLabelPosition=bottom;verticalAlign=top;align=center;html=1;fontSize=12;fontStyle=0;aspect=fixed;shape=mxgraph.aws4.resourceIcon;resIcon=mxgraph.aws4.ecs;" vertex="1" parent="1"><mxGeometry x="750" y="375" width="50" height="50" as="geometry"/></mxCell><mxCell id="17" value="SampleTaskDefinition" style="outlineConnect=0;fontColor=#B3B3B3;gradientColor=#F78E04;gradientDirection=north;fillColor=#D05C17;strokeColor=#ffffff;dashed=0;verticalLabelPosition=bottom;verticalAlign=top;align=center;html=1;fontSize=12;fontStyle=0;aspect=fixed;shape=mxgraph.aws4.resourceIcon;resIcon=mxgraph.aws4.ecs;" vertex="1" parent="1"><mxGeometry x="750" y="475" width="50" height="50" as="geometry"/></mxCell><mxCell id="18" value="SampleService" style="outlineConnect=0;fontColor=#B3B3B3;gradientColor=#F78E04;gradientDirection=north;fillColor=#D05C17;strokeColor=#ffffff;dashed=0;verticalLabelPosition=bottom;verticalAlign=top;align=center;html=1;fontSize=12;fontStyle=0;aspect=fixed;shape=mxgraph.aws4.resourceIcon;resIcon=mxgraph.aws4.ecs;" vertex="1" parent="1"><mxGeometry x="500" y="425" width="50" height="50" as="geometry"/></mxCell><mxCell id="19" value="SampleLogGroup" style="outlineConnect=0;fontColor=#B3B3B3;gradientColor=#F34482;gradientDirection=north;fillColor=#BC1356;strokeColor=#ffffff;dashed=0;verticalLabelPosition=bottom;verticalAlign=top;align=center;html=1;fontSize=12;fontStyle=0;aspect=fixed;shape=mxgraph.aws4.resourceIcon;resIcon=mxgraph.aws4.cloudwatch;" vertex="1" parent="1"><mxGeometry y="1100" width="50" height="50" as="geometry"/></mxCell><mxCell id="20" value="ODataTargetGroup" style="outlineConnect=0;fontColor=#B3B3B3;gradientColor=#aaaaaa;gradientDirection=north;fillColor=#aaaaaa;strokeColor=#ffffff;dashed=0;verticalLabelPosition=bottom;verticalAlign=top;align=center;html=1;fontSize=12;fontStyle=0;aspect=fixed;shape=mxgraph.aws4.resourceIcon;resIcon=mxgraph.aws4.elasticloadbalancingv2;" vertex="1" parent="1"><mxGeometry x="750" y="275" width="50" height="50" as="geometry"/></mxCell><mxCell id="21" value="ALB" style="outlineConnect=0;fontColor=#B3B3B3;gradientColor=#aaaaaa;gradientDirection=north;fillColor=#aaaaaa;strokeColor=#ffffff;dashed=0;verticalLabelPosition=bottom;verticalAlign=top;align=center;html=1;fontSize=12;fontStyle=0;aspect=fixed;shape=mxgraph.aws4.resourceIcon;resIcon=mxgraph.aws4.elasticloadbalancingv2;" vertex="1" parent="1"><mxGeometry x="500" y="875" width="50" height="50" as="geometry"/></mxCell><mxCell id="22" value="ODataListenerHTTP" style="outlineConnect=0;fontColor=#B3B3B3;gradientColor=#aaaaaa;gradientDirection=north;fillColor=#aaaaaa;strokeColor=#ffffff;dashed=0;verticalLabelPosition=bottom;verticalAlign=top;align=center;html=1;fontSize=12;fontStyle=0;aspect=fixed;shape=mxgraph.aws4.resourceIcon;resIcon=mxgraph.aws4.elasticloadbalancingv2;" vertex="1" parent="1"><mxGeometry x="250" y="350" width="50" height="50" as="geometry"/></mxCell><mxCell id="23" value="AutoScalingPolicy" style="outlineConnect=0;fontColor=#B3B3B3;gradientColor=#aaaaaa;gradientDirection=north;fillColor=#aaaaaa;strokeColor=#ffffff;dashed=0;verticalLabelPosition=bottom;verticalAlign=top;align=center;html=1;fontSize=12;fontStyle=0;aspect=fixed;shape=mxgraph.aws4.resourceIcon;resIcon=mxgraph.aws4.applicationautoscaling;" vertex="1" parent="1"><mxGeometry y="450" width="50" height="50" as="geometry"/></mxCell><mxCell id="24" value="AmazonEC2ContainerServiceAutoscaleRole" style="outlineConnect=0;fontColor=#B3B3B3;gradientColor=#F54749;gradientDirection=north;fillColor=#C7131F;strokeColor=#ffffff;dashed=0;verticalLabelPosition=bottom;verticalAlign=top;align=center;html=1;fontSize=12;fontStyle=0;aspect=fixed;shape=mxgraph.aws4.resourceIcon;resIcon=mxgraph.aws4.role;" vertex="1" parent="1"><mxGeometry x="500" y="525" width="50" height="50" as="geometry"/></mxCell><mxCell id="25" value="ECSServiceScalingTarget" style="outlineConnect=0;fontColor=#B3B3B3;gradientColor=#aaaaaa;gradientDirection=north;fillColor=#aaaaaa;strokeColor=#ffffff;dashed=0;verticalLabelPosition=bottom;verticalAlign=top;align=center;html=1;fontSize=12;fontStyle=0;aspect=fixed;shape=mxgraph.aws4.resourceIcon;resIcon=mxgraph.aws4.applicationautoscaling;" vertex="1" parent="1"><mxGeometry x="250" y="450" width="50" height="50" as="geometry"/></mxCell><mxCell id="26" value="ApiGatewayRestApi" style="outlineConnect=0;fontColor=#B3B3B3;gradientColor=#945DF2;gradientDirection=north;fillColor=#5A30B5;strokeColor=#ffffff;dashed=0;verticalLabelPosition=bottom;verticalAlign=top;align=center;html=1;fontSize=12;fontStyle=0;aspect=fixed;shape=mxgraph.aws4.resourceIcon;resIcon=mxgraph.aws4.api_gateway;" vertex="1" parent="1"><mxGeometry x="500" y="625" width="50" height="50" as="geometry"/></mxCell><mxCell id="27" value="ApiGatewayResource" style="outlineConnect=0;fontColor=#B3B3B3;gradientColor=#945DF2;gradientDirection=north;fillColor=#5A30B5;strokeColor=#ffffff;dashed=0;verticalLabelPosition=bottom;verticalAlign=top;align=center;html=1;fontSize=12;fontStyle=0;aspect=fixed;shape=mxgraph.aws4.resourceIcon;resIcon=mxgraph.aws4.api_gateway;" vertex="1" parent="1"><mxGeometry x="250" y="550" width="50" height="50" as="geometry"/></mxCell><mxCell id="28" value="VPCLink" style="outlineConnect=0;fontColor=#B3B3B3;gradientColor=#aaaaaa;gradientDirection=north;fillColor=#aaaaaa;strokeColor=#ffffff;dashed=0;verticalLabelPosition=bottom;verticalAlign=top;align=center;html=1;fontSize=12;fontStyle=0;aspect=fixed;shape=mxgraph.aws4.resourceIcon;resIcon=mxgraph.aws4.apigateway;" vertex="1" parent="1"><mxGeometry x="250" y="900" width="50" height="50" as="geometry"/></mxCell><mxCell id="29" value="ApiGatewayMethod" style="outlineConnect=0;fontColor=#B3B3B3;gradientColor=#945DF2;gradientDirection=north;fillColor=#5A30B5;strokeColor=#ffffff;dashed=0;verticalLabelPosition=bottom;verticalAlign=top;align=center;html=1;fontSize=12;fontStyle=0;aspect=fixed;shape=mxgraph.aws4.resourceIcon;resIcon=mxgraph.aws4.api_gateway;" vertex="1" parent="1"><mxGeometry y="700" width="50" height="50" as="geometry"/></mxCell><mxCell id="30" value="ApiGatewayAuthorizer" style="outlineConnect=0;fontColor=#B3B3B3;gradientColor=#aaaaaa;gradientDirection=north;fillColor=#aaaaaa;strokeColor=#ffffff;dashed=0;verticalLabelPosition=bottom;verticalAlign=top;align=center;html=1;fontSize=12;fontStyle=0;aspect=fixed;shape=mxgraph.aws4.resourceIcon;resIcon=mxgraph.aws4.apigateway;" vertex="1" parent="1"><mxGeometry x="250" y="700" width="50" height="50" as="geometry"/></mxCell><mxCell id="31" value="AuthorizerLambdaRole" style="outlineConnect=0;fontColor=#B3B3B3;gradientColor=#F54749;gradientDirection=north;fillColor=#C7131F;strokeColor=#ffffff;dashed=0;verticalLabelPosition=bottom;verticalAlign=top;align=center;html=1;fontSize=12;fontStyle=0;aspect=fixed;shape=mxgraph.aws4.resourceIcon;resIcon=mxgraph.aws4.role;" vertex="1" parent="1"><mxGeometry x="750" y="725" width="50" height="50" as="geometry"/></mxCell><mxCell id="32" value="AuthorizerLambda" style="outlineConnect=0;fontColor=#B3B3B3;gradientColor=#F78E04;gradientDirection=north;fillColor=#D05C17;strokeColor=#ffffff;dashed=0;verticalLabelPosition=bottom;verticalAlign=top;align=center;html=1;fontSize=12;fontStyle=0;aspect=fixed;shape=mxgraph.aws4.resourceIcon;resIcon=mxgraph.aws4.lambda;" vertex="1" parent="1"><mxGeometry x="500" y="725" width="50" height="50" as="geometry"/></mxCell><mxCell id="33" value="LambdaPermission" style="outlineConnect=0;fontColor=#B3B3B3;gradientColor=#F54749;gradientDirection=north;fillColor=#C7131F;strokeColor=#ffffff;dashed=0;verticalLabelPosition=bottom;verticalAlign=top;align=center;html=1;fontSize=12;fontStyle=0;aspect=fixed;shape=mxgraph.aws4.resourceIcon;resIcon=mxgraph.aws4.policy;" vertex="1" parent="1"><mxGeometry x="250" y="800" width="50" height="50" as="geometry"/></mxCell><mxCell id="34" value="apigateway  lambda&#xA;path/2015-03-31/functions/${authorizerlambda.arn}/invocations" style="outlineConnect=0;fontColor=#B3B3B3;gradientColor=#aaaaaa;gradientDirection=north;fillColor=#aaaaaa;strokeColor=#ffffff;dashed=0;verticalLabelPosition=bottom;verticalAlign=top;align=center;html=1;fontSize=12;fontStyle=0;aspect=fixed;shape=mxgraph.aws4.resourceIcon;resIcon=mxgraph.aws4.apigateway;" vertex="1" parent="1"><mxGeometry y="1250" width="50" height="50" as="geometry"/></mxCell><mxCell id="35" value="logs * *&#xA;*" style="outlineConnect=0;fontColor=#B3B3B3;gradientColor=#aaaaaa;gradientDirection=north;fillColor=#aaaaaa;strokeColor=#ffffff;dashed=0;verticalLabelPosition=bottom;verticalAlign=top;align=center;html=1;fontSize=12;fontStyle=0;aspect=fixed;shape=mxgraph.aws4.resourceIcon;resIcon=mxgraph.aws4.cloudwatch;" vertex="1" parent="1"><mxGeometry x="1000" y="600" width="50" height="50" as="geometry"/></mxCell><mxCell id="36" value="iam  &#xA;role/*" style="outlineConnect=0;fontColor=#B3B3B3;gradientColor=#aaaaaa;gradientDirection=north;fillColor=#aaaaaa;strokeColor=#ffffff;dashed=0;verticalLabelPosition=bottom;verticalAlign=top;align=center;html=1;fontSize=12;fontStyle=0;aspect=fixed;shape=mxgraph.aws4.resourceIcon;resIcon=mxgraph.aws4.identity_and_access_management;" vertex="1" parent="1"><mxGeometry x="1000" y="700" width="50" height="50" as="geometry"/></mxCell><mxCell id="VPC|PrivateSubnet1" value="VpcId" style="edgeStyle=orthogonalEdgeStyle;rounded=1;orthogonalLoop=1;jettySize=auto;html=1;labelBackgroundColor=none;fontColor=#EA6B66;noEdgeStyle=1;orthogonal=1;" edge="1" parent="1" source="3" target="2"><mxGeometry relative="1" as="geometry"><Array as="points"><mxPoint x="1562" y="475"/><mxPoint x="1650" y="500"/><mxPoint x="1900" y="500"/><mxPoint x="1982" y="478.125"/></Array></mxGeometry></mxCell><mxCell id="VPC|PrivateSubnet2" value="VpcId" style="edgeStyle=orthogonalEdgeStyle;rounded=1;orthogonalLoop=1;jettySize=auto;html=1;labelBackgroundColor=none;fontColor=#EA6B66;noEdgeStyle=1;orthogonal=1;" edge="1" parent="1" source="4" target="2"><mxGeometry relative="1" as="geometry"><Array as="points"><mxPoint x="1562" y="575"/><mxPoint x="1650" y="550"/><mxPoint x="1900" y="550"/><mxPoint x="1984" y="484.375"/></Array></mxGeometry></mxCell><mxCell id="VPC|AttachGateway" value="VpcId" style="edgeStyle=orthogonalEdgeStyle;rounded=1;orthogonalLoop=1;jettySize=auto;html=1;labelBackgroundColor=none;fontColor=#EA6B66;noEdgeStyle=1;orthogonal=1;" edge="1" parent="1" source="6" target="2"><mxGeometry relative="1" as="geometry"><Array as="points"><mxPoint x="62" y="27.5"/><mxPoint x="150"/><mxPoint x="400"/><mxPoint x="400"/><mxPoint x="650"/><mxPoint x="650"/><mxPoint x="900"/><mxPoint x="900"/><mxPoint x="1150"/><mxPoint x="1150"/><mxPoint x="1400"/><mxPoint x="1400"/><mxPoint x="1650"/><mxPoint x="1650"/><mxPoint x="1900"/><mxPoint x="1988" y="453.125"/></Array></mxGeometry></mxCell><mxCell id="InternetGateway|AttachGateway" value="InternetGatewayId" style="edgeStyle=orthogonalEdgeStyle;rounded=1;orthogonalLoop=1;jettySize=auto;html=1;labelBackgroundColor=none;fontColor=#EA6B66;noEdgeStyle=1;orthogonal=1;" edge="1" parent="1" source="6" target="5"><mxGeometry relative="1" as="geometry"><Array as="points"><mxPoint x="62" y="47.5"/><mxPoint x="238" y="65"/></Array></mxGeometry></mxCell><mxCell id="VPC|RouteTable" value="VpcId" style="edgeStyle=orthogonalEdgeStyle;rounded=1;orthogonalLoop=1;jettySize=auto;html=1;labelBackgroundColor=none;fontColor=#EA6B66;noEdgeStyle=1;orthogonal=1;" edge="1" parent="1" source="7" target="2"><mxGeometry relative="1" as="geometry"><Array as="points"><mxPoint x="312" y="175"/><mxPoint x="400" y="125"/><mxPoint x="650" y="125"/><mxPoint x="650" y="125"/><mxPoint x="900" y="125"/><mxPoint x="900" y="125"/><mxPoint x="1150" y="125"/><mxPoint x="1150" y="125"/><mxPoint x="1400" y="125"/><mxPoint x="1400" y="125"/><mxPoint x="1650" y="125"/><mxPoint x="1650" y="125"/><mxPoint x="1900" y="125"/><mxPoint x="1986" y="459.375"/></Array></mxGeometry></mxCell><mxCell id="RouteTable|Route" value="RouteTableId" style="edgeStyle=orthogonalEdgeStyle;rounded=1;orthogonalLoop=1;jettySize=auto;html=1;labelBackgroundColor=none;fontColor=#EA6B66;noEdgeStyle=1;orthogonal=1;" edge="1" parent="1" source="8" target="7"><mxGeometry relative="1" as="geometry"><Array as="points"><mxPoint x="62" y="147.5"/><mxPoint x="238" y="161.66666666666666"/></Array></mxGeometry></mxCell><mxCell id="InternetGateway|Route" value="GatewayId" style="edgeStyle=orthogonalEdgeStyle;rounded=1;orthogonalLoop=1;jettySize=auto;html=1;labelBackgroundColor=none;fontColor=#EA6B66;noEdgeStyle=1;orthogonal=1;" edge="1" parent="1" source="8" target="5"><mxGeometry relative="1" as="geometry"><Array as="points"><mxPoint x="62" y="127.5"/><mxPoint x="238" y="85"/></Array></mxGeometry></mxCell><mxCell id="PrivateSubnet1|PrivateSubnet1RouteTableAssociation" value="SubnetId" style="edgeStyle=orthogonalEdgeStyle;rounded=1;orthogonalLoop=1;jettySize=auto;html=1;labelBackgroundColor=none;fontColor=#EA6B66;noEdgeStyle=1;orthogonal=1;" edge="1" parent="1" source="9" target="3"><mxGeometry relative="1" as="geometry"><Array as="points"><mxPoint x="62" y="247.5"/><mxPoint x="150" y="250"/><mxPoint x="400" y="250"/><mxPoint x="400" y="175"/><mxPoint x="650" y="175"/><mxPoint x="650" y="175"/><mxPoint x="900" y="175"/><mxPoint x="900" y="175"/><mxPoint x="1150" y="175"/><mxPoint x="1150" y="175"/><mxPoint x="1400" y="175"/><mxPoint x="1488" y="460"/></Array></mxGeometry></mxCell><mxCell id="RouteTable|PrivateSubnet1RouteTableAssociation" value="RouteTableId" style="edgeStyle=orthogonalEdgeStyle;rounded=1;orthogonalLoop=1;jettySize=auto;html=1;labelBackgroundColor=none;fontColor=#EA6B66;noEdgeStyle=1;orthogonal=1;" edge="1" parent="1" source="9" target="7"><mxGeometry relative="1" as="geometry"><Array as="points"><mxPoint x="62" y="227.5"/><mxPoint x="236" y="175"/></Array></mxGeometry></mxCell><mxCell id="PrivateSubnet2|PrivateSubnet2RouteTableAssociation" value="SubnetId" style="edgeStyle=orthogonalEdgeStyle;rounded=1;orthogonalLoop=1;jettySize=auto;html=1;labelBackgroundColor=none;fontColor=#EA6B66;noEdgeStyle=1;orthogonal=1;" edge="1" parent="1" source="10" target="4"><mxGeometry relative="1" as="geometry"><Array as="points"><mxPoint x="62" y="347.5"/><mxPoint x="150" y="300"/><mxPoint x="400" y="300"/><mxPoint x="400" y="225"/><mxPoint x="650" y="225"/><mxPoint x="650" y="225"/><mxPoint x="900" y="225"/><mxPoint x="900" y="225"/><mxPoint x="1150" y="225"/><mxPoint x="1150" y="225"/><mxPoint x="1400" y="225"/><mxPoint x="1488" y="560"/></Array></mxGeometry></mxCell><mxCell id="RouteTable|PrivateSubnet2RouteTableAssociation" value="RouteTableId" style="edgeStyle=orthogonalEdgeStyle;rounded=1;orthogonalLoop=1;jettySize=auto;html=1;labelBackgroundColor=none;fontColor=#EA6B66;noEdgeStyle=1;orthogonal=1;" edge="1" parent="1" source="10" target="7"><mxGeometry relative="1" as="geometry"><Array as="points"><mxPoint x="62" y="327.5"/><mxPoint x="238" y="188.33333333333334"/></Array></mxGeometry></mxCell><mxCell id="VPC|ECSClusterSecurityGroup" value="VpcId" style="edgeStyle=orthogonalEdgeStyle;rounded=1;orthogonalLoop=1;jettySize=auto;html=1;labelBackgroundColor=none;fontColor=#EA6B66;noEdgeStyle=1;orthogonal=1;" edge="1" parent="1" source="11" target="2"><mxGeometry relative="1" as="geometry"><Array as="points"><mxPoint x="1562" y="665"/><mxPoint x="1650" y="600"/><mxPoint x="1900" y="600"/><mxPoint x="1986" y="490.625"/></Array></mxGeometry></mxCell><mxCell id="LoadBalancerSecurityGroup|ECSClusterSecurityGroup" value="SourceSecurityGroupId" style="edgeStyle=orthogonalEdgeStyle;rounded=1;orthogonalLoop=1;jettySize=auto;html=1;labelBackgroundColor=none;fontColor=#EA6B66;noEdgeStyle=1;orthogonal=1;" edge="1" parent="1" source="11" target="12"><mxGeometry relative="1" as="geometry"><Array as="points"><mxPoint x="1562" y="685"/><mxPoint x="1738" y="665"/></Array></mxGeometry></mxCell><mxCell id="VPC|LoadBalancerSecurityGroup" value="VpcId" style="edgeStyle=orthogonalEdgeStyle;rounded=1;orthogonalLoop=1;jettySize=auto;html=1;labelBackgroundColor=none;fontColor=#EA6B66;noEdgeStyle=1;orthogonal=1;" edge="1" parent="1" source="12" target="2"><mxGeometry relative="1" as="geometry"><Array as="points"><mxPoint x="1812" y="675"/><mxPoint x="1988" y="496.875"/></Array></mxGeometry></mxCell><mxCell id="VPC|RDSSecurityGroup" value="VpcId" style="edgeStyle=orthogonalEdgeStyle;rounded=1;orthogonalLoop=1;jettySize=auto;html=1;labelBackgroundColor=none;fontColor=#EA6B66;noEdgeStyle=1;orthogonal=1;" edge="1" parent="1" source="13" target="2"><mxGeometry relative="1" as="geometry"><Array as="points"><mxPoint x="1312" y="415"/><mxPoint x="1400" y="400"/><mxPoint x="1650" y="400"/><mxPoint x="1650" y="400"/><mxPoint x="1900" y="400"/><mxPoint x="1982" y="471.875"/></Array></mxGeometry></mxCell><mxCell id="ECSClusterSecurityGroup|RDSSecurityGroup" value="SourceSecurityGroupId" style="edgeStyle=orthogonalEdgeStyle;rounded=1;orthogonalLoop=1;jettySize=auto;html=1;labelBackgroundColor=none;fontColor=#EA6B66;noEdgeStyle=1;orthogonal=1;" edge="1" parent="1" source="13" target="11"><mxGeometry relative="1" as="geometry"><Array as="points"><mxPoint x="1312" y="435"/><mxPoint x="1488" y="665"/></Array></mxGeometry></mxCell><mxCell id="RDSSecurityGroup|RDSMySQL" value="VPCSecurityGroups" style="edgeStyle=orthogonalEdgeStyle;rounded=1;orthogonalLoop=1;jettySize=auto;html=1;labelBackgroundColor=none;fontColor=#EA6B66;noEdgeStyle=1;orthogonal=1;" edge="1" parent="1" source="14" target="13"><mxGeometry relative="1" as="geometry"><Array as="points"><mxPoint x="1062" y="365"/><mxPoint x="1238" y="425"/></Array></mxGeometry></mxCell><mxCell id="DBSubnetGroup|RDSMySQL" value="DBSubnetGroupName" style="edgeStyle=orthogonalEdgeStyle;rounded=1;orthogonalLoop=1;jettySize=auto;html=1;labelBackgroundColor=none;fontColor=#EA6B66;noEdgeStyle=1;orthogonal=1;" edge="1" parent="1" source="14" target="15"><mxGeometry relative="1" as="geometry"><Array as="points"><mxPoint x="1062" y="385"/><mxPoint x="1238" y="525"/></Array></mxGeometry></mxCell><mxCell id="PrivateSubnet1|DBSubnetGroup" value="SubnetIds" style="edgeStyle=orthogonalEdgeStyle;rounded=1;orthogonalLoop=1;jettySize=auto;html=1;labelBackgroundColor=none;fontColor=#EA6B66;noEdgeStyle=1;orthogonal=1;" edge="1" parent="1" source="15" target="3"><mxGeometry relative="1" as="geometry"><Array as="points"><mxPoint x="1312" y="515"/><mxPoint x="1486" y="470"/></Array></mxGeometry></mxCell><mxCell id="PrivateSubnet2|DBSubnetGroup" value="SubnetIds" style="edgeStyle=orthogonalEdgeStyle;rounded=1;orthogonalLoop=1;jettySize=auto;html=1;labelBackgroundColor=none;fontColor=#EA6B66;noEdgeStyle=1;orthogonal=1;" edge="1" parent="1" source="15" target="4"><mxGeometry relative="1" as="geometry"><Array as="points"><mxPoint x="1312" y="535"/><mxPoint x="1486" y="570"/></Array></mxGeometry></mxCell><mxCell id="RDSMySQL|SampleTaskDefinition" value="Value" style="edgeStyle=orthogonalEdgeStyle;rounded=1;orthogonalLoop=1;jettySize=auto;html=1;labelBackgroundColor=none;fontColor=#EA6B66;noEdgeStyle=1;orthogonal=1;" edge="1" parent="1" source="17" target="14"><mxGeometry relative="1" as="geometry"><Array as="points"><mxPoint x="812" y="500"/><mxPoint x="988" y="375"/></Array></mxGeometry></mxCell><mxCell id="ECS|SampleService" value="Cluster" style="edgeStyle=orthogonalEdgeStyle;rounded=1;orthogonalLoop=1;jettySize=auto;html=1;labelBackgroundColor=none;fontColor=#EA6B66;noEdgeStyle=1;orthogonal=1;" edge="1" parent="1" source="18" target="16"><mxGeometry relative="1" as="geometry"><Array as="points"><mxPoint x="564" y="440"/><mxPoint x="738" y="410"/></Array></mxGeometry></mxCell><mxCell id="SampleTaskDefinition|SampleService" value="TaskDefinition" style="edgeStyle=orthogonalEdgeStyle;rounded=1;orthogonalLoop=1;jettySize=auto;html=1;labelBackgroundColor=none;fontColor=#EA6B66;noEdgeStyle=1;orthogonal=1;" edge="1" parent="1" source="18" target="17"><mxGeometry relative="1" as="geometry"><Array as="points"><mxPoint x="566" y="446.6666666666667"/><mxPoint x="738" y="500"/></Array></mxGeometry></mxCell><mxCell id="PrivateSubnet1|SampleService" value="Subnets" style="edgeStyle=orthogonalEdgeStyle;rounded=1;orthogonalLoop=1;jettySize=auto;html=1;labelBackgroundColor=none;fontColor=#EA6B66;noEdgeStyle=1;orthogonal=1;" edge="1" parent="1" source="18" target="3"><mxGeometry relative="1" as="geometry"><Array as="points"><mxPoint x="566" y="453.33333333333337"/><mxPoint x="650" y="575"/><mxPoint x="900" y="575"/><mxPoint x="900" y="450"/><mxPoint x="1150" y="450"/><mxPoint x="1150" y="600"/><mxPoint x="1400" y="600"/><mxPoint x="1486" y="480"/></Array></mxGeometry></mxCell><mxCell id="PrivateSubnet2|SampleService" value="Subnets" style="edgeStyle=orthogonalEdgeStyle;rounded=1;orthogonalLoop=1;jettySize=auto;html=1;labelBackgroundColor=none;fontColor=#EA6B66;noEdgeStyle=1;orthogonal=1;" edge="1" parent="1" source="18" target="4"><mxGeometry relative="1" as="geometry"><Array as="points"><mxPoint x="564" y="460.00000000000006"/><mxPoint x="650" y="625"/><mxPoint x="900" y="625"/><mxPoint x="900" y="500"/><mxPoint x="1150" y="500"/><mxPoint x="1150" y="650"/><mxPoint x="1400" y="650"/><mxPoint x="1486" y="580"/></Array></mxGeometry></mxCell><mxCell id="ECSClusterSecurityGroup|SampleService" value="SecurityGroups" style="edgeStyle=orthogonalEdgeStyle;rounded=1;orthogonalLoop=1;jettySize=auto;html=1;labelBackgroundColor=none;fontColor=#EA6B66;noEdgeStyle=1;orthogonal=1;" edge="1" parent="1" source="18" target="11"><mxGeometry relative="1" as="geometry"><Array as="points"><mxPoint x="562" y="466.66666666666674"/><mxPoint x="650" y="675"/><mxPoint x="900" y="675"/><mxPoint x="900" y="550"/><mxPoint x="1150" y="550"/><mxPoint x="1150" y="700"/><mxPoint x="1400" y="700"/><mxPoint x="1488" y="685"/></Array></mxGeometry></mxCell><mxCell id="ODataTargetGroup|SampleService" value="TargetGroupArn" style="edgeStyle=orthogonalEdgeStyle;rounded=1;orthogonalLoop=1;jettySize=auto;html=1;labelBackgroundColor=none;fontColor=#EA6B66;noEdgeStyle=1;orthogonal=1;" edge="1" parent="1" source="18" target="20"><mxGeometry relative="1" as="geometry"><Array as="points"><mxPoint x="562" y="433.3333333333333"/><mxPoint x="738" y="310"/></Array></mxGeometry></mxCell><mxCell id="VPC|ODataTargetGroup" value="VpcId" style="edgeStyle=orthogonalEdgeStyle;rounded=1;orthogonalLoop=1;jettySize=auto;html=1;labelBackgroundColor=none;fontColor=#EA6B66;noEdgeStyle=1;orthogonal=1;" edge="1" parent="1" source="20" target="2"><mxGeometry relative="1" as="geometry"><Array as="points"><mxPoint x="812" y="300"/><mxPoint x="900" y="300"/><mxPoint x="1150" y="300"/><mxPoint x="1150" y="300"/><mxPoint x="1400" y="300"/><mxPoint x="1400" y="300"/><mxPoint x="1650" y="300"/><mxPoint x="1650" y="300"/><mxPoint x="1900" y="300"/><mxPoint x="1984" y="465.625"/></Array></mxGeometry></mxCell><mxCell id="PrivateSubnet1|ALB" value="Subnets" style="edgeStyle=orthogonalEdgeStyle;rounded=1;orthogonalLoop=1;jettySize=auto;html=1;labelBackgroundColor=none;fontColor=#EA6B66;noEdgeStyle=1;orthogonal=1;" edge="1" parent="1" source="21" target="3"><mxGeometry relative="1" as="geometry"><Array as="points"><mxPoint x="562" y="886.6666666666666"/><mxPoint x="650" y="825"/><mxPoint x="900" y="825"/><mxPoint x="900" y="825"/><mxPoint x="1150" y="825"/><mxPoint x="1150" y="825"/><mxPoint x="1400" y="825"/><mxPoint x="1488" y="490"/></Array></mxGeometry></mxCell><mxCell id="PrivateSubnet2|ALB" value="Subnets" style="edgeStyle=orthogonalEdgeStyle;rounded=1;orthogonalLoop=1;jettySize=auto;html=1;labelBackgroundColor=none;fontColor=#EA6B66;noEdgeStyle=1;orthogonal=1;" edge="1" parent="1" source="21" target="4"><mxGeometry relative="1" as="geometry"><Array as="points"><mxPoint x="564" y="900"/><mxPoint x="650" y="875"/><mxPoint x="900" y="875"/><mxPoint x="900" y="875"/><mxPoint x="1150" y="875"/><mxPoint x="1150" y="875"/><mxPoint x="1400" y="875"/><mxPoint x="1488" y="590"/></Array></mxGeometry></mxCell><mxCell id="LoadBalancerSecurityGroup|ALB" value="SecurityGroups" style="edgeStyle=orthogonalEdgeStyle;rounded=1;orthogonalLoop=1;jettySize=auto;html=1;labelBackgroundColor=none;fontColor=#EA6B66;noEdgeStyle=1;orthogonal=1;" edge="1" parent="1" source="21" target="12"><mxGeometry relative="1" as="geometry"><Array as="points"><mxPoint x="562" y="913.3333333333334"/><mxPoint x="650" y="925"/><mxPoint x="900" y="925"/><mxPoint x="900" y="925"/><mxPoint x="1150" y="925"/><mxPoint x="1150" y="925"/><mxPoint x="1400" y="925"/><mxPoint x="1400" y="925"/><mxPoint x="1650" y="925"/><mxPoint x="1738" y="685"/></Array></mxGeometry></mxCell><mxCell id="ODataTargetGroup|ODataListenerHTTP" value="TargetGroupArn" style="edgeStyle=orthogonalEdgeStyle;rounded=1;orthogonalLoop=1;jettySize=auto;html=1;labelBackgroundColor=none;fontColor=#EA6B66;noEdgeStyle=1;orthogonal=1;" edge="1" parent="1" source="22" target="20"><mxGeometry relative="1" as="geometry"><Array as="points"><mxPoint x="312" y="365"/><mxPoint x="400" y="325"/><mxPoint x="650" y="325"/><mxPoint x="738" y="290"/></Array></mxGeometry></mxCell><mxCell id="ALB|ODataListenerHTTP" value="LoadBalancerArn" style="edgeStyle=orthogonalEdgeStyle;rounded=1;orthogonalLoop=1;jettySize=auto;html=1;labelBackgroundColor=none;fontColor=#EA6B66;noEdgeStyle=1;orthogonal=1;" edge="1" parent="1" source="22" target="21"><mxGeometry relative="1" as="geometry"><Array as="points"><mxPoint x="312" y="385"/><mxPoint x="488" y="886.6666666666666"/></Array></mxGeometry></mxCell><mxCell id="ECSServiceScalingTarget|AutoScalingPolicy" value="ScalingTargetId" style="edgeStyle=orthogonalEdgeStyle;rounded=1;orthogonalLoop=1;jettySize=auto;html=1;labelBackgroundColor=none;fontColor=#EA6B66;noEdgeStyle=1;orthogonal=1;" edge="1" parent="1" source="23" target="25"><mxGeometry relative="1" as="geometry"><Array as="points"><mxPoint x="62" y="475"/><mxPoint x="238" y="475"/></Array></mxGeometry></mxCell><mxCell id="ECS|ECSServiceScalingTarget" value="ResourceId" style="edgeStyle=orthogonalEdgeStyle;rounded=1;orthogonalLoop=1;jettySize=auto;html=1;labelBackgroundColor=none;fontColor=#EA6B66;noEdgeStyle=1;orthogonal=1;" edge="1" parent="1" source="25" target="16"><mxGeometry relative="1" as="geometry"><Array as="points"><mxPoint x="312" y="461.6666666666667"/><mxPoint x="400" y="375"/><mxPoint x="650" y="375"/><mxPoint x="738" y="390"/></Array></mxGeometry></mxCell><mxCell id="SampleService|ECSServiceScalingTarget" value="ResourceId" style="edgeStyle=orthogonalEdgeStyle;rounded=1;orthogonalLoop=1;jettySize=auto;html=1;labelBackgroundColor=none;fontColor=#EA6B66;noEdgeStyle=1;orthogonal=1;" edge="1" parent="1" source="25" target="18"><mxGeometry relative="1" as="geometry"><Array as="points"><mxPoint x="314" y="475"/><mxPoint x="488" y="450"/></Array></mxGeometry></mxCell><mxCell id="AmazonEC2ContainerServiceAutoscaleRole|ECSServiceScalingTarget" value="RoleARN" style="edgeStyle=orthogonalEdgeStyle;rounded=1;orthogonalLoop=1;jettySize=auto;html=1;labelBackgroundColor=none;fontColor=#EA6B66;noEdgeStyle=1;orthogonal=1;" edge="1" parent="1" source="25" target="24"><mxGeometry relative="1" as="geometry"><Array as="points"><mxPoint x="312" y="488.3333333333333"/><mxPoint x="488" y="550"/></Array></mxGeometry></mxCell><mxCell id="ApiGatewayRestApi|ApiGatewayResource" value="RestApiId&#xA;ParentId" style="edgeStyle=orthogonalEdgeStyle;rounded=1;orthogonalLoop=1;jettySize=auto;html=1;labelBackgroundColor=none;fontColor=#EA6B66;noEdgeStyle=1;orthogonal=1;" edge="1" parent="1" source="27" target="26"><mxGeometry relative="1" as="geometry"><Array as="points"><mxPoint x="312" y="575"/><mxPoint x="488" y="636.6666666666666"/></Array></mxGeometry></mxCell><mxCell id="ALB|VPCLink" value="TargetArns" style="edgeStyle=orthogonalEdgeStyle;rounded=1;orthogonalLoop=1;jettySize=auto;html=1;labelBackgroundColor=none;fontColor=#EA6B66;noEdgeStyle=1;orthogonal=1;" edge="1" parent="1" source="28" target="21"><mxGeometry relative="1" as="geometry"><Array as="points"><mxPoint x="312" y="925"/><mxPoint x="486" y="900"/></Array></mxGeometry></mxCell><mxCell id="ApiGatewayAuthorizer|ApiGatewayMethod" value="AuthorizerId" style="edgeStyle=orthogonalEdgeStyle;rounded=1;orthogonalLoop=1;jettySize=auto;html=1;labelBackgroundColor=none;fontColor=#EA6B66;noEdgeStyle=1;orthogonal=1;" edge="1" parent="1" source="29" target="30"><mxGeometry relative="1" as="geometry"><Array as="points"><mxPoint x="66" y="725"/><mxPoint x="238" y="725"/></Array></mxGeometry></mxCell><mxCell id="ApiGatewayResource|ApiGatewayMethod" value="ResourceId" style="edgeStyle=orthogonalEdgeStyle;rounded=1;orthogonalLoop=1;jettySize=auto;html=1;labelBackgroundColor=none;fontColor=#EA6B66;noEdgeStyle=1;orthogonal=1;" edge="1" parent="1" source="29" target="27"><mxGeometry relative="1" as="geometry"><Array as="points"><mxPoint x="62" y="709"/><mxPoint x="238" y="575"/></Array></mxGeometry></mxCell><mxCell id="ApiGatewayRestApi|ApiGatewayMethod" value="RestApiId" style="edgeStyle=orthogonalEdgeStyle;rounded=1;orthogonalLoop=1;jettySize=auto;html=1;labelBackgroundColor=none;fontColor=#EA6B66;noEdgeStyle=1;orthogonal=1;" edge="1" parent="1" source="29" target="26"><mxGeometry relative="1" as="geometry"><Array as="points"><mxPoint x="64" y="717"/><mxPoint x="150" y="650"/><mxPoint x="400" y="650"/><mxPoint x="486" y="650"/></Array></mxGeometry></mxCell><mxCell id="VPCLink|ApiGatewayMethod" value="VpcLinkId" style="edgeStyle=orthogonalEdgeStyle;rounded=1;orthogonalLoop=1;jettySize=auto;html=1;labelBackgroundColor=none;fontColor=#EA6B66;noEdgeStyle=1;orthogonal=1;" edge="1" parent="1" source="29" target="28"><mxGeometry relative="1" as="geometry"><Array as="points"><mxPoint x="64" y="733"/><mxPoint x="238" y="925"/></Array></mxGeometry></mxCell><mxCell id="ALB|ApiGatewayMethod" value="Uri" style="edgeStyle=orthogonalEdgeStyle;rounded=1;orthogonalLoop=1;jettySize=auto;html=1;labelBackgroundColor=none;fontColor=#EA6B66;noEdgeStyle=1;orthogonal=1;" edge="1" parent="1" source="29" target="21"><mxGeometry relative="1" as="geometry"><Array as="points"><mxPoint x="62" y="741"/><mxPoint x="150" y="1000"/><mxPoint x="400" y="1000"/><mxPoint x="488" y="913.3333333333334"/></Array></mxGeometry></mxCell><mxCell id="AuthorizerLambda|ApiGatewayAuthorizer" value="AuthorizerUri" style="edgeStyle=orthogonalEdgeStyle;rounded=1;orthogonalLoop=1;jettySize=auto;html=1;labelBackgroundColor=none;fontColor=#EA6B66;noEdgeStyle=1;orthogonal=1;" edge="1" parent="1" source="30" target="32"><mxGeometry relative="1" as="geometry"><Array as="points"><mxPoint x="312" y="735"/><mxPoint x="488" y="740"/></Array></mxGeometry></mxCell><mxCell id="ApiGatewayRestApi|ApiGatewayAuthorizer" value="RestApiId" style="edgeStyle=orthogonalEdgeStyle;rounded=1;orthogonalLoop=1;jettySize=auto;html=1;labelBackgroundColor=none;fontColor=#EA6B66;noEdgeStyle=1;orthogonal=1;" edge="1" parent="1" source="30" target="26"><mxGeometry relative="1" as="geometry"><Array as="points"><mxPoint x="312" y="715"/><mxPoint x="488" y="663.3333333333334"/></Array></mxGeometry></mxCell><mxCell id="logs * *&#xA;*|AuthorizerLambdaRole" value="PolicyDocument" style="edgeStyle=orthogonalEdgeStyle;rounded=1;orthogonalLoop=1;jettySize=auto;html=1;labelBackgroundColor=none;fontColor=#EA6B66;noEdgeStyle=1;orthogonal=1;" edge="1" parent="1" source="31" target="35"><mxGeometry relative="1" as="geometry"><Array as="points"><mxPoint x="812" y="740"/><mxPoint x="988" y="625"/></Array></mxGeometry></mxCell><mxCell id="iam  &#xA;role/*|AuthorizerLambdaRole" value="PolicyDocument" style="edgeStyle=orthogonalEdgeStyle;rounded=1;orthogonalLoop=1;jettySize=auto;html=1;labelBackgroundColor=none;fontColor=#EA6B66;noEdgeStyle=1;orthogonal=1;" edge="1" parent="1" source="31" target="36"><mxGeometry relative="1" as="geometry"><Array as="points"><mxPoint x="812" y="760"/><mxPoint x="988" y="725"/></Array></mxGeometry></mxCell><mxCell id="AuthorizerLambdaRole|AuthorizerLambda" value="Role" style="edgeStyle=orthogonalEdgeStyle;rounded=1;orthogonalLoop=1;jettySize=auto;html=1;labelBackgroundColor=none;fontColor=#EA6B66;noEdgeStyle=1;orthogonal=1;" edge="1" parent="1" source="32" target="31"><mxGeometry relative="1" as="geometry"><Array as="points"><mxPoint x="562" y="750"/><mxPoint x="738" y="750"/></Array></mxGeometry></mxCell><mxCell id="AuthorizerLambda|LambdaPermission" value="FunctionName" style="edgeStyle=orthogonalEdgeStyle;rounded=1;orthogonalLoop=1;jettySize=auto;html=1;labelBackgroundColor=none;fontColor=#EA6B66;noEdgeStyle=1;orthogonal=1;" edge="1" parent="1" source="33" target="32"><mxGeometry relative="1" as="geometry"><Array as="points"><mxPoint x="312" y="825"/><mxPoint x="488" y="760"/></Array></mxGeometry></mxCell></root></mxGraphModel>
            </diagram>
          </mxfile>